<?xml version="1.0" standalone="no"?>
<!DOCTYPE svg PUBLIC "-//W3C//DTD SVG 20010904//EN"
 "http://www.w3.org/TR/2001/REC-SVG-20010904/DTD/svg10.dtd">
<svg version="1.0" xmlns="http://www.w3.org/2000/svg"
 width="520.000000pt" height="520.000000pt" viewBox="0 0 520.000000 520.000000"
 preserveAspectRatio="xMidYMid meet">
<metadata>
Created by potrace 1.11, written by Peter Selinger 2001-2013
</metadata>
<g transform="translate(0.000000,520.000000) scale(0.100000,-0.100000)"
fill="#000000" stroke="none">
<path d="M960 5145 c0 -5 12 -26 57 -100 6 -11 50 -83 97 -160 48 -77 94 -153
104 -169 9 -16 69 -115 134 -220 l116 -191 954 -1 c524 -1 994 -5 1043 -8 323
-21 618 -221 750 -508 59 -129 84 -312 64 -459 -28 -196 -162 -420 -322 -536
-29 -21 -54 -40 -57 -44 -16 -20 -208 -101 -281 -119 -118 -28 -152 -29 -666
-30 l-453 0 34 -53 c19 -30 43 -69 54 -88 11 -19 69 -115 129 -214 61 -99 265
-434 453 -745 420 -692 494 -815 580 -955 188 -308 260 -428 260 -434 1 -3 11
-18 23 -34 l23 -27 541 2 541 3 -97 160 c-53 88 -150 248 -216 355 -211 348
-280 461 -296 488 -9 15 -87 144 -174 287 -87 143 -165 272 -174 287 -9 14
-36 59 -61 100 -24 40 -52 87 -61 104 l-17 31 56 23 c57 23 172 80 247 123
142 79 334 243 443 377 21 25 43 51 50 59 7 7 35 46 61 85 135 200 226 430
265 671 16 100 19 396 4 473 -5 26 -11 63 -14 82 -9 59 -53 207 -84 286 -130
327 -348 595 -649 796 -176 117 -362 200 -568 253 -211 54 -196 54 -1595 54
-714 1 -1298 -1 -1298 -4z"/>
<path d="M40 1963 l0 -1913 475 0 475 0 1 33 c0 17 1 687 2 1487 l2 1455 981
0 c856 0 981 2 976 15 -3 8 -46 80 -95 160 -50 80 -98 159 -107 175 -10 17
-75 125 -145 240 -71 116 -135 221 -143 235 l-15 26 -1203 0 -1204 0 0 -1913z"/>
</g>
</svg>
