<svg xmlns="http://www.w3.org/2000/svg" xmlns:xlink="http://www.w3.org/1999/xlink" width="75" height="18" viewBox="0 0 75 18">
    <defs>
        <path id="a" d="M.034.042h13.592v16.407H.034z"/>
        <path id="c" d="M0 .259h5.751v7.485H0z"/>
        <path id="e" d="M.236.058h6.516v7.886H.236z"/>
        <path id="g" d="M.035.259h6.138v7.485H.035z"/>
    </defs>
    <g fill="none" fill-rule="evenodd">
        <path fill="#FF333A" d="M0 4.19v12.306h3.06v-9.57h8.127L9.528 4.19z"/>
        <g transform="translate(2.896 .047)">
            <mask id="b" fill="#fff">
                <use xlink:href="#a"/>
            </mask>
            <path fill="#000" d="M9.95 10.608c2.15-.792 3.676-2.772 3.676-5.097 0-3.02-2.573-5.47-5.747-5.47H.034l1.66 2.735h6.185c1.585 0 2.874 1.227 2.874 2.735 0 1.312-.977 2.41-2.274 2.673-.193.04-.394.061-.6.061H5.011l4.977 8.204h3.505L9.95 10.608z" mask="url(#b)"/>
        </g>
        <g>
            <g transform="translate(22 5.248)">
                <mask id="d" fill="#fff">
                    <use xlink:href="#c"/>
                </mask>
                <path fill="#000" d="M3.695 2.553a.785.785 0 0 0-.105-.428.73.73 0 0 0-.27-.254c-.11-.06-.232-.1-.369-.122a2.624 2.624 0 0 0-.394-.031h-.908v1.744h.808c.14 0 .283-.012.43-.037.146-.025.279-.069.399-.132a.776.776 0 0 0 .294-.275.849.849 0 0 0 .115-.465zm.07 5.19l-1.527-2.97h-.58v2.97H0V.26h2.682c.337 0 .667.037.988.11.321.075.61.2.864.376.255.176.459.409.611.698.152.289.228.648.228 1.078 0 .508-.129.934-.387 1.28-.258.345-.616.592-1.073.74l1.838 3.203H3.764z" mask="url(#d)"/>
            </g>
            <path fill="#000" d="M34.222 13.002c-.46.12-.962.18-1.505.18a4.13 4.13 0 0 1-1.554-.286 3.56 3.56 0 0 1-1.222-.804 3.674 3.674 0 0 1-.8-1.241 4.327 4.327 0 0 1-.287-1.612c0-.6.097-1.143.293-1.63.195-.485.465-.9.81-1.241a3.554 3.554 0 0 1 1.211-.788 4.04 4.04 0 0 1 1.5-.274c.556 0 1.073.09 1.55.269.476.18.863.421 1.161.724l-1.072 1.3a1.867 1.867 0 0 0-.656-.502 2.107 2.107 0 0 0-.924-.195 1.943 1.943 0 0 0-1.48.66c-.185.209-.329.455-.432.74a2.745 2.745 0 0 0-.154.937c0 .344.047.662.14.95.092.29.23.538.411.746.183.208.408.37.676.486.268.117.574.175.919.175.198 0 .387-.016.566-.048.179-.031.344-.082.496-.153V10.03h-1.34V8.572h2.9v3.965c-.344.19-.747.345-1.207.465M41.05 7.822a.85.85 0 0 0-.098-.434.712.712 0 0 0-.269-.264 1.097 1.097 0 0 0-.382-.127 3.017 3.017 0 0 0-.442-.032h-.745v1.766h.715c.16 0 .311-.014.457-.043.146-.028.277-.077.393-.147a.772.772 0 0 0 .273-.28.878.878 0 0 0 .099-.44m1.699-.01c0 .437-.077.805-.229 1.105-.152.3-.358.54-.616.724a2.635 2.635 0 0 1-.894.402 4.318 4.318 0 0 1-1.053.127h-.844v2.822h-1.698V5.506h2.582c.384 0 .743.041 1.078.122.334.081.625.211.874.391.248.18.443.416.586.708.142.293.214.654.214 1.084M50.319 7.05v5.941h-1.7V7.05h-1.985V5.506h5.671V7.05zM53.676 12.991V5.506h4.728V7.03h-3.09v1.416h2.92v1.449h-2.92v1.554h3.269v1.543z"/>
            <g transform="translate(59.737 5.248)">
                <mask id="f" fill="#fff">
                    <use xlink:href="#e"/>
                </mask>
                <path fill="#000" d="M5.6 7.611c-.457.223-.983.334-1.58.334a3.904 3.904 0 0 1-1.504-.286c-.46-.19-.86-.46-1.197-.809a3.768 3.768 0 0 1-.795-1.252A4.34 4.34 0 0 1 .236 3.99c0-.6.098-1.142.293-1.629.196-.486.466-.9.81-1.242A3.552 3.552 0 0 1 2.55.333a4.042 4.042 0 0 1 1.5-.275c.496 0 .984.093 1.464.28.48.187.87.46 1.167.82L5.53 2.383a1.443 1.443 0 0 0-.625-.519 1.971 1.971 0 0 0-.795-.168 1.906 1.906 0 0 0-1.46.655 2.224 2.224 0 0 0-.417.724c-.1.278-.15.583-.15.915 0 .338.05.648.15.93.099.282.236.523.412.724.175.201.386.358.63.47.246.114.514.17.805.17.338 0 .633-.07.884-.212a1.75 1.75 0 0 0 .606-.55l1.182 1.185c-.311.38-.695.681-1.152.903" mask="url(#f)"/>
            </g>
            <g transform="translate(67.775 5.248)">
                <mask id="h" fill="#fff">
                    <use xlink:href="#g"/>
                </mask>
                <path fill="#000" d="M4.475 7.744v-3.13H1.734v3.13h-1.7V.259h1.7v2.833h2.74V.259h1.7v7.485z" mask="url(#h)"/>
            </g>
        </g>
    </g>
</svg>
